<?xml version="1.0" encoding="iso-8859-1"?>
<!-- Generator: Adobe Illustrator 19.0.0, SVG Export Plug-In . SVG Version: 6.00 Build 0)  -->
<svg xmlns="http://www.w3.org/2000/svg" xmlns:xlink="http://www.w3.org/1999/xlink" version="1.1" id="Layer_1" x="0px" y="0px" viewBox="0 0 298.288 298.288" style="enable-background:new 0 0 298.288 298.288;" xml:space="preserve" width="32px" height="32px">
<g id="XMLID_1437_">
	<g>
		<g>
			<path d="M186.13,134.451l-13.898,8.664c4.37,2.64,9.492,4.16,14.97,4.16c16.015,0,28.997-12.982,28.997-28.997     c0-16.015-12.982-28.997-28.997-28.997c-8.26,0-15.706,3.459-20.987,9c9.389-4.54,20.883-1.364,26.525,7.687     C198.78,115.658,195.821,128.411,186.13,134.451z" fill="#FFFFFF"/>
			<path d="M147.968,146.981l33.108-20.638c5.213-3.249,6.804-10.109,3.555-15.322c-3.248-5.212-10.108-6.805-15.322-3.555     l-16.202,10.1l-0.099-19.705c-0.072-14.44-11.88-26.189-26.32-26.189c-6.319,0-53.53,0-59.71,0     c-14.44,0-26.248,11.748-26.32,26.189l-0.41,81.711c-0.02,3.941,2.028,7.428,5.141,9.421v9.249h-2.911     c-2.538,0-4.596,2.058-4.596,4.596v45.342c0,2.538,2.058,4.596,4.596,4.596h17.29c2.538,0,4.596-2.058,4.596-4.596v-45.342     c0-2.538-2.058-4.596-4.596-4.596h-2.963v-8.917c3.429-1.927,5.665-5.561,5.686-9.641l0.41-81.71c0-0.016,0-0.032,0.001-0.047     c0.02-1.179,0.987-2.122,2.166-2.111c1.179,0.01,2.129,0.969,2.129,2.148c0.001,17.553,0.005,86.517,0.005,92.678     c4.107,2.513,6.855,7.04,6.855,12.198v45.342c0,5.158-2.748,9.685-6.855,12.198v24.563c0,7.371,5.975,13.346,13.346,13.346     c7.371,0,13.346-5.975,13.346-13.346c0-5.449,0-102.857,0-106.681h5.762c0,3.885,0,101.378,0,106.681     c0,7.371,5.975,13.346,13.346,13.346c7.371,0,13.346-5.975,13.346-13.346c0-100.174-0.18-169.73-0.229-186.896     c-0.004-1.271,1.015-2.308,2.285-2.328s2.322,0.985,2.358,2.257l0.199,39.627c0.02,4.031,2.22,7.735,5.749,9.682     C140.27,149.245,144.576,149.096,147.968,146.981z" fill="#FFFFFF"/>
			<path d="M96.926,64.325c12.73,0,23.051-10.319,23.051-23.051c0-12.734-10.322-23.051-23.051-23.051     c-12.702,0-23.051,10.288-23.051,23.051C73.875,54.053,84.253,64.325,96.926,64.325z" fill="#FFFFFF"/>
			<path d="M260.353,174.289V7.631c0-4.214-3.416-7.631-7.631-7.631H111.914c-4.214,0-7.631,3.416-7.631,7.631v2.293     c5.863,1.375,11.114,4.351,15.262,8.448v-3.11h125.546v151.397H135.817l0.172,101.643c0,2.023,1.64,3.663,3.663,3.663h117.092     c2.023,0,3.663-1.64,3.663-3.663v-94.013H260.353z" fill="#FFFFFF"/>
		</g>
	</g>
</g>
<g>
</g>
<g>
</g>
<g>
</g>
<g>
</g>
<g>
</g>
<g>
</g>
<g>
</g>
<g>
</g>
<g>
</g>
<g>
</g>
<g>
</g>
<g>
</g>
<g>
</g>
<g>
</g>
<g>
</g>
</svg>
