<?xml version="1.0" encoding="iso-8859-1"?>
<!-- Generator: Adobe Illustrator 18.0.0, SVG Export Plug-In . SVG Version: 6.00 Build 0)  -->
<!DOCTYPE svg PUBLIC "-//W3C//DTD SVG 1.1//EN" "http://www.w3.org/Graphics/SVG/1.1/DTD/svg11.dtd">
<svg xmlns="http://www.w3.org/2000/svg" xmlns:xlink="http://www.w3.org/1999/xlink" version="1.1" id="Capa_1" x="0px" y="0px" viewBox="0 0 454.659 454.659" style="enable-background:new 0 0 454.659 454.659;" xml:space="preserve" width="32px" height="32px">
<g>
	<path d="M109.111,135.076c0-16.026-13.039-29.065-29.065-29.065c-16.027,0-29.065,13.039-29.065,29.065   s13.039,29.065,29.065,29.065C96.073,164.141,109.111,151.102,109.111,135.076z M70.981,135.076c0-4.999,4.067-9.065,9.065-9.065   s9.065,4.066,9.065,9.065s-4.066,9.065-9.065,9.065S70.981,140.074,70.981,135.076z" fill="#FFFFFF"/>
	<path d="M444.659,282.134H90.046v-5.499h203.12c5.523,0,10-4.477,10-10s-4.477-10-10-10H90.046v-42.16   c39.432-4.94,70.046-38.65,70.046-79.399c0-44.138-35.908-80.046-80.046-80.046S0,90.938,0,135.076   c0,40.749,30.614,74.46,70.046,79.399v42.16H20.18c-5.523,0-10,4.477-10,10s4.477,10,10,10h49.866v5.499H20.18   c-5.523,0-10,4.477-10,10s4.477,10,10,10h49.866v77.495H52.297c-5.523,0-10,4.477-10,10s4.477,10,10,10h55.498   c5.523,0,10-4.477,10-10s-4.477-10-10-10H90.046v-77.495h290.615v77.495h-17.749c-5.523,0-10,4.477-10,10s4.477,10,10,10h55.497   c5.523,0,10-4.477,10-10s-4.477-10-10-10h-17.749v-77.495h43.997c5.523,0,10-4.477,10-10S450.182,282.134,444.659,282.134z    M20,135.076c0-33.11,26.937-60.046,60.046-60.046c33.109,0,60.046,26.937,60.046,60.046c0,33.11-26.937,60.046-60.046,60.046   C46.937,195.122,20,168.186,20,135.076z" fill="#FFFFFF"/>
	<path d="M324.665,276.635h119.994c5.523,0,10-4.477,10-10s-4.477-10-10-10H324.665c-5.523,0-10,4.477-10,10   S319.142,276.635,324.665,276.635z" fill="#FFFFFF"/>
</g>
<g>
</g>
<g>
</g>
<g>
</g>
<g>
</g>
<g>
</g>
<g>
</g>
<g>
</g>
<g>
</g>
<g>
</g>
<g>
</g>
<g>
</g>
<g>
</g>
<g>
</g>
<g>
</g>
<g>
</g>
</svg>
